<svg width="100" height="100" viewBox="0 0 100 100" fill="none" xmlns="http://www.w3.org/2000/svg">
<rect width="100" height="100" fill="white"/>
<path d="M82 50.5441C82 33.1185 67.4536 19 49.5 19C31.5464 19 17 33.1185 17 50.5441C17 66.2882 28.8848 79.3383 44.4219 81.7067V59.6627H36.1658V50.5441H44.4219V43.5942C44.4219 35.6891 49.2707 31.3226 56.6972 31.3226C60.2538 31.3226 63.973 31.9382 63.973 31.9382V39.697H59.8738C55.8375 39.697 54.5781 42.129 54.5781 44.6232V50.5441H63.5916L62.1501 59.6627H54.5781V81.7067C70.1152 79.3383 82 66.2882 82 50.5441Z" fill="black"/>
</svg>
