<svg width="100" height="100" viewBox="0 0 100 100" fill="none" xmlns="http://www.w3.org/2000/svg">
<rect width="100" height="100" fill="white"/>
<path d="M50.5073 33.8313C41.2847 33.8313 33.8458 41.2702 33.8458 50.4927C33.8458 59.7153 41.2847 67.1542 50.5073 67.1542C59.7298 67.1542 67.1687 59.7153 67.1687 50.4927C67.1687 41.2702 59.7298 33.8313 50.5073 33.8313ZM50.5073 61.3249C44.5474 61.3249 39.6751 56.4671 39.6751 50.4927C39.6751 44.5184 44.5329 39.6606 50.5073 39.6606C56.4816 39.6606 61.3394 44.5184 61.3394 50.4927C61.3394 56.4671 56.4671 61.3249 50.5073 61.3249ZM71.7365 33.1497C71.7365 35.3104 69.9964 37.036 67.8503 37.036C65.6896 37.036 63.964 35.2959 63.964 33.1497C63.964 31.0036 65.7041 29.2635 67.8503 29.2635C69.9964 29.2635 71.7365 31.0036 71.7365 33.1497ZM82.7716 37.094C82.5251 31.8882 81.336 27.2769 77.5223 23.4777C73.7231 19.6785 69.1118 18.4894 63.906 18.2284C58.5407 17.9239 42.4593 17.9239 37.094 18.2284C31.9027 18.4749 27.2914 19.664 23.4777 23.4632C19.664 27.2624 18.4894 31.8737 18.2284 37.0795C17.9239 42.4448 17.9239 58.5262 18.2284 63.8915C18.4749 69.0973 19.664 73.7086 23.4777 77.5078C27.2914 81.307 31.8882 82.4961 37.094 82.7571C42.4593 83.0616 58.5407 83.0616 63.906 82.7571C69.1118 82.5106 73.7231 81.3215 77.5223 77.5078C81.3215 73.7086 82.5106 69.0973 82.7716 63.8915C83.0761 58.5262 83.0761 42.4593 82.7716 37.094ZM75.8402 69.6483C74.7091 72.4905 72.5195 74.6801 69.6629 75.8257C65.3851 77.5223 55.2345 77.1308 50.5073 77.1308C45.78 77.1308 35.6149 77.5078 31.3516 75.8257C28.5095 74.6946 26.3199 72.505 25.1743 69.6483C23.4777 65.3706 23.8692 55.22 23.8692 50.4927C23.8692 45.7655 23.4922 35.6004 25.1743 31.3371C26.3054 28.495 28.495 26.3054 31.3516 25.1598C35.6294 23.4632 45.78 23.8547 50.5073 23.8547C55.2345 23.8547 65.3996 23.4777 69.6629 25.1598C72.505 26.2909 74.6946 28.4805 75.8402 31.3371C77.5368 35.6149 77.1453 45.7655 77.1453 50.4927C77.1453 55.22 77.5368 65.3851 75.8402 69.6483Z" fill="black"/>
</svg>
